<?xml version="1.0" standalone="no"?>
<!DOCTYPE svg PUBLIC "-//W3C//DTD SVG 20010904//EN"
 "http://www.w3.org/TR/2001/REC-SVG-20010904/DTD/svg10.dtd">
<svg version="1.0" xmlns="http://www.w3.org/2000/svg"
 width="32.000000pt" height="32.000000pt" viewBox="0 0 32.000000 32.000000"
 preserveAspectRatio="xMidYMid meet">

<g transform="translate(0.000000,32.000000) scale(0.100000,-0.100000)"
fill="#000000" stroke="none">
<path d="M17 223 c-4 -3 -7 -21 -7 -40 l0 -33 65 0 c63 0 65 -1 65 -25 0 -24
-3 -25 -61 -25 -37 0 -58 -4 -54 -10 9 -14 109 -12 123 2 7 7 12 25 12 40 0
28 0 28 -65 28 -63 0 -65 1 -65 25 0 24 3 25 60 25 33 0 60 4 60 10 0 11 -123
14 -133 3z"/>
<path d="M180 221 c0 -6 26 -11 58 -13 l57 -3 0 -50 0 -50 -60 -5 c-72 -7 -53
-23 21 -18 l49 3 0 70 0 70 -62 3 c-37 2 -63 -1 -63 -7z"/>
<path d="M73 193 c9 -2 23 -2 30 0 6 3 -1 5 -18 5 -16 0 -22 -2 -12 -5z"/>
<path d="M272 160 c0 -14 2 -19 5 -12 2 6 2 18 0 25 -3 6 -5 1 -5 -13z"/>
<path d="M78 133 c6 -2 18 -2 25 0 6 3 1 5 -13 5 -14 0 -19 -2 -12 -5z"/>
</g>
</svg>
